<?xml version="1.0" encoding="UTF-8"?>
<!DOCTYPE svg PUBLIC "-//W3C//DTD SVG 1.1//EN" "http://www.w3.org/Graphics/SVG/1.1/DTD/svg11.dtd">
<svg xmlns="http://www.w3.org/2000/svg" version="1.1" width="64px" height="64px" style="shape-rendering:geometricPrecision; text-rendering:geometricPrecision; image-rendering:optimizeQuality; fill-rule:evenodd; clip-rule:evenodd" xmlns:xlink="http://www.w3.org/1999/xlink">
<g><path style="opacity:1" fill="#fffdfd" d="M -0.5,-0.5 C 20.8333,-0.5 42.1667,-0.5 63.5,-0.5C 63.5,-0.166667 63.5,0.166667 63.5,0.5C 61.1432,0.336688 58.8098,0.503354 56.5,1C 50.3286,8.00392 43.9953,14.8373 37.5,21.5C 36.8333,14.5 36.1667,7.5 35.5,0.5C 33.5,0.5 31.5,0.5 29.5,0.5C 29.5,3.5 29.5,6.5 29.5,9.5C 19.5,9.5 9.5,9.5 -0.5,9.5C -0.5,6.16667 -0.5,2.83333 -0.5,-0.5 Z"/></g>
<g><path style="opacity:1" fill="#ff3a37" d="M 35.5,0.5 C 35.1694,7.86348 35.5027,15.1968 36.5,22.5C 37.1067,22.3764 37.44,22.0431 37.5,21.5C 43.9953,14.8373 50.3286,8.00392 56.5,1C 58.8098,0.503354 61.1432,0.336688 63.5,0.5C 63.5,0.833333 63.5,1.16667 63.5,1.5C 56.1815,8.82114 49.1815,16.4878 42.5,24.5C 48.8196,32.4862 55.8196,39.8195 63.5,46.5C 63.5,47.5 63.5,48.5 63.5,49.5C 61.4727,49.6621 59.4727,49.4955 57.5,49C 51.0166,41.3497 44.0166,34.183 36.5,27.5C 35.5027,34.8032 35.1694,42.1365 35.5,49.5C 33.8333,49.5 32.1667,49.5 30.5,49.5C 30.8284,37.3217 30.4951,25.3217 29.5,13.5C 29.5,12.1667 29.5,10.8333 29.5,9.5C 29.5,6.5 29.5,3.5 29.5,0.5C 31.5,0.5 33.5,0.5 35.5,0.5 Z"/></g>
<g><path style="opacity:1" fill="#ffbaba" d="M 35.5,0.5 C 36.1667,7.5 36.8333,14.5 37.5,21.5C 37.44,22.0431 37.1067,22.3764 36.5,22.5C 35.5027,15.1968 35.1694,7.86348 35.5,0.5 Z"/></g>
<g><path style="opacity:1" fill="#fffcfc" d="M 63.5,1.5 C 63.5,16.5 63.5,31.5 63.5,46.5C 55.8196,39.8195 48.8196,32.4862 42.5,24.5C 49.1815,16.4878 56.1815,8.82114 63.5,1.5 Z"/></g>
<g><path style="opacity:1" fill="#ffbd5a" d="M -0.5,9.5 C 9.5,9.5 19.5,9.5 29.5,9.5C 29.5,10.8333 29.5,12.1667 29.5,13.5C 25.5,13.5 21.5,13.5 17.5,13.5C 17.5,26.5 17.5,39.5 17.5,52.5C 16.1667,52.5 14.8333,52.5 13.5,52.5C 13.5,39.5 13.5,26.5 13.5,13.5C 8.83333,13.5 4.16667,13.5 -0.5,13.5C -0.5,12.1667 -0.5,10.8333 -0.5,9.5 Z"/></g>
<g><path style="opacity:1" fill="#fffdfd" d="M -0.5,14.5 C 3.83333,14.5 8.16667,14.5 12.5,14.5C 12.5,27.5 12.5,40.5 12.5,53.5C 14.4147,53.7845 16.0813,53.4511 17.5,52.5C 18.4954,40.011 18.8287,27.3443 18.5,14.5C 22.1667,14.5 25.8333,14.5 29.5,14.5C 29.1717,26.3453 29.5051,38.012 30.5,49.5C 32.1667,49.5 33.8333,49.5 35.5,49.5C 35.1694,42.1365 35.5027,34.8032 36.5,27.5C 44.0166,34.183 51.0166,41.3497 57.5,49C 59.4727,49.4955 61.4727,49.6621 63.5,49.5C 63.5,54.1667 63.5,58.8333 63.5,63.5C 42.1667,63.5 20.8333,63.5 -0.5,63.5C -0.5,47.1667 -0.5,30.8333 -0.5,14.5 Z"/></g>
<g><path style="opacity:1" fill="#ffcf87" d="M -0.5,14.5 C -0.5,14.1667 -0.5,13.8333 -0.5,13.5C 4.16667,13.5 8.83333,13.5 13.5,13.5C 13.5,26.5 13.5,39.5 13.5,52.5C 14.8333,52.5 16.1667,52.5 17.5,52.5C 16.0813,53.4511 14.4147,53.7845 12.5,53.5C 12.5,40.5 12.5,27.5 12.5,14.5C 8.16667,14.5 3.83333,14.5 -0.5,14.5 Z"/></g>
<g><path style="opacity:1" fill="#ffd0b8" d="M 29.5,13.5 C 30.4951,25.3217 30.8284,37.3217 30.5,49.5C 29.5051,38.012 29.1717,26.3453 29.5,14.5C 25.8333,14.5 22.1667,14.5 18.5,14.5C 18.8287,27.3443 18.4954,40.011 17.5,52.5C 17.5,39.5 17.5,26.5 17.5,13.5C 21.5,13.5 25.5,13.5 29.5,13.5 Z"/></g>
</svg>
